<svg xmlns="http://www.w3.org/2000/svg" width="900" height="1200" viewBox="0 0 900 1200" fill="none">
  <defs>
    <linearGradient id="bg" x1="100" y1="80" x2="790" y2="1120" gradientUnits="userSpaceOnUse">
      <stop stop-color="#0A2A2A"/>
      <stop offset="0.52" stop-color="#1B4D4D"/>
      <stop offset="1" stop-color="#3A7B7B"/>
    </linearGradient>
  </defs>

  <rect width="900" height="1200" rx="56" fill="url(#bg)"/>
  <rect x="116" y="116" width="668" height="46" rx="23" fill="white" fill-opacity="0.16"/>
  <text x="154" y="147" fill="white" fill-opacity="0.94" font-size="26" font-family="'Avenir Next', 'PingFang SC', sans-serif" letter-spacing="2">ACADEMIC PAPER</text>

  <text x="120" y="690" fill="white" font-size="86" font-family="'Avenir Next', 'PingFang SC', sans-serif" font-weight="700">REGIONAL</text>
  <text x="120" y="748" fill="white" fill-opacity="0.9" font-size="34" font-family="'Avenir Next', 'PingFang SC', sans-serif" letter-spacing="1.2">CLUSTERING &amp; INNOVATION</text>

  <rect x="146" y="372" width="84" height="306" rx="10" fill="#7FD3C6" fill-opacity="0.85"/>
  <rect x="250" y="310" width="108" height="368" rx="10" fill="#B4E6DD" fill-opacity="0.9"/>
  <rect x="378" y="440" width="92" height="238" rx="10" fill="#7FD3C6" fill-opacity="0.8"/>
  <rect x="490" y="266" width="124" height="412" rx="10" fill="#D6F4EE" fill-opacity="0.95"/>
  <rect x="634" y="348" width="110" height="330" rx="10" fill="#9AE0D4" fill-opacity="0.9"/>

  <circle cx="188" cy="332" r="8" fill="#D6F4EE"/>
  <circle cx="304" cy="286" r="8" fill="#D6F4EE"/>
  <circle cx="424" cy="410" r="8" fill="#D6F4EE"/>
  <circle cx="552" cy="236" r="8" fill="#D6F4EE"/>
  <circle cx="688" cy="320" r="8" fill="#D6F4EE"/>
  <path d="M188 332L304 286L424 410L552 236L688 320" stroke="#D6F4EE" stroke-width="3" stroke-opacity="0.85"/>

  <rect x="118" y="808" width="664" height="2" fill="white" fill-opacity="0.34"/>
  <text x="120" y="866" fill="white" fill-opacity="0.9" font-size="28" font-family="'Avenir Next', 'PingFang SC', sans-serif">Economics</text>
  <text x="690" y="866" fill="white" fill-opacity="0.9" font-size="28" text-anchor="end" font-family="'Avenir Next', 'PingFang SC', sans-serif">2024</text>
</svg>

